<?xml version="1.0" encoding="UTF-8"?><svg id="Layer_1" xmlns="http://www.w3.org/2000/svg" viewBox="0 0 3437.7 1888.42"><defs><style>.cls-1{fill:#fff;stroke-width:0px;}</style></defs><rect class="cls-1" x="130.65" y="130.65" width="3176.4" height="1627.13"/><circle class="cls-1" cx="130.65" cy="130.65" r="130.65"/><circle class="cls-1" cx="352.28" cy="130.65" r="90.99"/><circle class="cls-1" cx="136.12" cy="346.81" r="85.52"/><circle class="cls-1" cx="136.12" cy="517.84" r="85.52"/><circle class="cls-1" cx="136.12" cy="688.88" r="85.52"/><circle class="cls-1" cx="136.12" cy="859.91" r="85.52"/><circle class="cls-1" cx="136.12" cy="1030.94" r="85.52"/><circle class="cls-1" cx="136.12" cy="1201.98" r="85.52"/><circle class="cls-1" cx="136.12" cy="1373.01" r="85.52"/><circle class="cls-1" cx="136.12" cy="1544.04" r="85.52"/><circle class="cls-1" cx="3310.94" cy="346.81" r="85.52"/><circle class="cls-1" cx="3310.94" cy="517.84" r="85.52"/><circle class="cls-1" cx="3310.94" cy="688.88" r="85.52"/><circle class="cls-1" cx="3310.94" cy="859.91" r="85.52"/><circle class="cls-1" cx="3310.94" cy="1030.94" r="85.52"/><circle class="cls-1" cx="3310.94" cy="1201.98" r="85.52"/><circle class="cls-1" cx="3310.94" cy="1373.01" r="85.52"/><circle class="cls-1" cx="3310.94" cy="1544.04" r="85.52"/><circle class="cls-1" cx="534.27" cy="130.65" r="90.99"/><circle class="cls-1" cx="716.25" cy="130.65" r="90.99"/><circle class="cls-1" cx="898.23" cy="130.65" r="90.99"/><circle class="cls-1" cx="1080.21" cy="130.65" r="90.99"/><circle class="cls-1" cx="1262.19" cy="130.65" r="90.99"/><circle class="cls-1" cx="1444.17" cy="130.65" r="90.99"/><circle class="cls-1" cx="1626.15" cy="130.65" r="90.99"/><circle class="cls-1" cx="1808.14" cy="130.65" r="90.99"/><circle class="cls-1" cx="1990.12" cy="130.65" r="90.99"/><circle class="cls-1" cx="2172.1" cy="130.65" r="90.99"/><circle class="cls-1" cx="2354.08" cy="130.65" r="90.99"/><circle class="cls-1" cx="2536.06" cy="130.65" r="90.99"/><circle class="cls-1" cx="2718.04" cy="130.65" r="90.99"/><circle class="cls-1" cx="2900.02" cy="130.65" r="90.99"/><circle class="cls-1" cx="3082" cy="130.65" r="90.99"/><circle class="cls-1" cx="352.28" cy="1757.77" r="90.99"/><circle class="cls-1" cx="534.27" cy="1757.77" r="90.99"/><circle class="cls-1" cx="716.25" cy="1757.77" r="90.99"/><circle class="cls-1" cx="898.23" cy="1757.77" r="90.99"/><circle class="cls-1" cx="1080.21" cy="1757.77" r="90.99"/><circle class="cls-1" cx="1262.19" cy="1757.77" r="90.99"/><circle class="cls-1" cx="1444.17" cy="1757.77" r="90.99"/><circle class="cls-1" cx="1626.15" cy="1757.77" r="90.99"/><circle class="cls-1" cx="1808.14" cy="1757.77" r="90.99"/><circle class="cls-1" cx="1990.12" cy="1757.77" r="90.99"/><circle class="cls-1" cx="2172.1" cy="1757.77" r="90.99"/><circle class="cls-1" cx="2354.08" cy="1757.77" r="90.99"/><circle class="cls-1" cx="2536.06" cy="1757.77" r="90.99"/><circle class="cls-1" cx="2718.04" cy="1757.77" r="90.99"/><circle class="cls-1" cx="2900.02" cy="1757.77" r="90.99"/><circle class="cls-1" cx="3082" cy="1757.77" r="90.99"/><circle class="cls-1" cx="130.65" cy="1757.77" r="130.65"/><circle class="cls-1" cx="3307.05" cy="1757.77" r="130.65"/><circle class="cls-1" cx="3307.05" cy="130.65" r="130.65"/></svg>